<svg width="13" height="8" viewBox="0 0 13 8" xmlns="http://www.w3.org/2000/svg">
<path d="M7.72295 6.05176C8.16563 5.90867 8.7324 6.99638 9.33576 7.41267C9.78862 7.728 10.1355 7.65993 10.1355 7.65993L11.7436 7.63678C11.7436 7.63678 12.5841 7.58492 12.1868 6.9172C12.1539 6.86163 11.9539 6.4222 10.9898 5.51786C9.98172 4.57185 10.1183 4.72512 11.332 3.08962C12.0715 2.09267 12.3674 1.48376 12.2747 1.22445C12.1858 0.974862 11.6427 1.03969 11.6427 1.03969L9.83076 1.05219C9.65434 1.05265 9.50478 1.10729 9.43671 1.29066C9.43532 1.29252 9.14915 2.06211 8.7676 2.7164C7.96142 4.10046 7.6396 4.17408 7.50624 4.08749C7.20017 3.88699 7.2775 3.28317 7.2775 2.85392C7.2775 1.51246 7.47754 0.953099 6.88576 0.808627C6.68803 0.760469 6.54356 0.728982 6.0393 0.724351C5.39473 0.714627 4.8474 0.724351 4.53716 0.876695C4.3311 0.979956 4.1732 1.20639 4.26905 1.21935C4.38945 1.23556 4.65941 1.29344 4.80388 1.4907C4.98956 1.74631 4.984 2.3191 4.984 2.3191C4.984 2.3191 5.09004 3.89857 4.73396 4.09444C4.48947 4.22872 4.15514 3.9546 3.43602 2.69788C3.06882 2.05516 2.79146 1.34484 2.79146 1.34484C2.79146 1.34484 2.73774 1.21287 2.6405 1.14063C2.52474 1.05497 2.36267 1.02765 2.36267 1.02765L0.642898 1.03876C0.642898 1.03876 0.384515 1.04617 0.289589 1.16008C0.205314 1.26103 0.282644 1.4694 0.282644 1.4694C0.282644 1.4694 1.62966 4.65566 3.15495 6.26059C4.55337 7.73402 6.14256 7.63632 6.14256 7.63632H6.8626C6.8626 7.63632 7.07977 7.61131 7.19091 7.49185C7.29463 7.38071 7.29 7.17188 7.29 7.17188C7.29 7.17188 7.27565 6.1953 7.72295 6.05176Z"/>
</svg>
