<svg xmlns="http://www.w3.org/2000/svg"><symbol viewBox="0 0 9.09481 16.243334" id="ok">
<path d="M4.68026 2.88903C5.57876 2.88903 6.30946 3.64334 6.30946 4.57085C6.30946 5.49557 5.57876 6.24987 4.68026 6.24987C3.78177 6.24987 3.05107 5.49557 3.05107 4.57085C3.05107 3.64334 3.78177 2.88903 4.68026 2.88903ZM4.68026 8.63012C6.85072 8.63012 8.61523 6.80862 8.61523 4.57085C8.61523 2.33029 6.85072 0.508789 4.68026 0.508789C2.5098 0.508789 0.747998 2.33029 0.747998 4.57085C0.747998 6.80862 2.5098 8.63012 4.68026 8.63012ZM6.27157 11.9435C7.07264 11.7535 7.84394 11.4266 8.55569 10.9657C9.09425 10.6164 9.25663 9.8817 8.91834 9.32575C8.57734 8.76701 7.86829 8.59939 7.32703 8.95139C5.71678 9.99624 3.64375 9.99624 2.03079 8.95139C1.49223 8.59939 0.780474 8.76701 0.442186 9.32575C0.103897 9.8817 0.266275 10.6164 0.804831 10.9657C1.51659 11.4266 2.28789 11.7535 3.08895 11.9435L0.888726 14.212C0.439479 14.6757 0.439479 15.43 0.888726 15.8938C1.11606 16.1257 1.40834 16.243 1.70332 16.243C1.99831 16.243 2.2933 16.1257 2.52063 15.8938L4.68026 13.6644L6.8426 15.8938C7.29185 16.3603 8.01985 16.3603 8.4718 15.8938C8.92105 15.43 8.92105 14.6757 8.4718 14.212L6.27157 11.9435Z"/>
</symbol><symbol viewBox="0 0 12.293205 7.666192" id="vk">
<path d="M7.72295 6.05176C8.16563 5.90867 8.7324 6.99638 9.33576 7.41267C9.78862 7.728 10.1355 7.65993 10.1355 7.65993L11.7436 7.63678C11.7436 7.63678 12.5841 7.58492 12.1868 6.9172C12.1539 6.86163 11.9539 6.4222 10.9898 5.51786C9.98172 4.57185 10.1183 4.72512 11.332 3.08962C12.0715 2.09267 12.3674 1.48376 12.2747 1.22445C12.1858 0.974862 11.6427 1.03969 11.6427 1.03969L9.83076 1.05219C9.65434 1.05265 9.50478 1.10729 9.43671 1.29066C9.43532 1.29252 9.14915 2.06211 8.7676 2.7164C7.96142 4.10046 7.6396 4.17408 7.50624 4.08749C7.20017 3.88699 7.2775 3.28317 7.2775 2.85392C7.2775 1.51246 7.47754 0.953099 6.88576 0.808627C6.68803 0.760469 6.54356 0.728982 6.0393 0.724351C5.39473 0.714627 4.8474 0.724351 4.53716 0.876695C4.3311 0.979956 4.1732 1.20639 4.26905 1.21935C4.38945 1.23556 4.65941 1.29344 4.80388 1.4907C4.98956 1.74631 4.984 2.3191 4.984 2.3191C4.984 2.3191 5.09004 3.89857 4.73396 4.09444C4.48947 4.22872 4.15514 3.9546 3.43602 2.69788C3.06882 2.05516 2.79146 1.34484 2.79146 1.34484C2.79146 1.34484 2.73774 1.21287 2.6405 1.14063C2.52474 1.05497 2.36267 1.02765 2.36267 1.02765L0.642898 1.03876C0.642898 1.03876 0.384515 1.04617 0.289589 1.16008C0.205314 1.26103 0.282644 1.4694 0.282644 1.4694C0.282644 1.4694 1.62966 4.65566 3.15495 6.26059C4.55337 7.73402 6.14256 7.63632 6.14256 7.63632H6.8626C6.8626 7.63632 7.07977 7.61131 7.19091 7.49185C7.29463 7.38071 7.29 7.17188 7.29 7.17188C7.29 7.17188 7.27565 6.1953 7.72295 6.05176Z"/>
</symbol><symbol viewBox="0 0 14.444192 14.444" id="reddit">
<path d="M8.85101 0.555664C8.40563 0.555664 7.9877 0.781596 7.71963 1.10741C7.45156 1.43323 7.30381 1.8304 7.19616 2.24897C7.02518 2.92201 6.97241 3.66877 6.95975 4.34181C5.70806 4.42505 4.57457 4.79606 3.63316 5.36921C3.2511 5.04815 2.79095 4.86978 2.3498 4.87454C1.84743 4.87929 1.3704 5.09571 1.01579 5.54044C0.338225 6.38947 0.416324 7.77836 1.20154 8.60361C1.15299 8.85808 1.1171 9.11969 1.1171 9.38367C1.1171 12.1805 3.9751 14.4446 7.50011 14.4446C11.0251 14.4446 13.8831 12.1781 13.8831 9.38367C13.8831 9.11969 13.8472 8.85808 13.7987 8.60361C14.5839 7.77836 14.662 6.38947 13.9844 5.54044C13.6298 5.09571 13.1528 4.87929 12.6504 4.87454C12.2093 4.86978 11.7491 5.04815 11.3671 5.36921C10.4299 4.79843 9.30272 4.42743 8.05736 4.34181C8.07424 3.72109 8.11857 3.07659 8.2431 2.59143C8.3212 2.28702 8.41408 2.06584 8.51328 1.94455C8.61249 1.82326 8.68426 1.77332 8.85101 1.77332C9.21195 1.77332 9.25839 1.88985 9.4758 2.17286C9.58556 2.31556 9.71221 2.49393 9.91484 2.66754C10.1175 2.84115 10.4172 2.99098 10.7423 2.99098V1.77332C10.6515 1.77332 10.6346 1.77094 10.5734 1.71624C10.5122 1.66154 10.4278 1.5355 10.3032 1.37378C10.0542 1.04796 9.57079 0.555664 8.85101 0.555664ZM12.3634 0.669819C11.5233 0.669819 10.8436 1.43561 10.8436 2.38215C10.8436 3.32869 11.5233 4.09448 12.3634 4.09448C13.2034 4.09448 13.8831 3.32869 13.8831 2.38215C13.8831 1.43561 13.2034 0.669819 12.3634 0.669819ZM12.3634 1.27865C12.9037 1.27865 13.3428 1.77332 13.3428 2.38215C13.3428 2.99098 12.9037 3.48565 12.3634 3.48565C11.823 3.48565 11.3839 2.99098 11.3839 2.38215C11.3839 1.77332 11.823 1.27865 12.3634 1.27865ZM7.50011 5.29311C10.4911 5.29311 13.0219 7.16953 13.0219 9.38367C13.0219 11.6002 10.4911 13.4742 7.50011 13.4742C4.50913 13.4742 1.9783 11.6002 1.9783 9.38367C1.9783 7.16953 4.50913 5.29311 7.50011 5.29311ZM2.36669 5.84486C2.51655 5.84724 2.67275 5.88529 2.82262 5.95901C2.28015 6.42277 1.84955 6.95549 1.55615 7.55719C1.35351 7.0863 1.40839 6.49887 1.65746 6.18732C1.83899 5.95901 2.09017 5.84248 2.36669 5.84486ZM12.6335 5.84486C12.91 5.84248 13.1612 5.95901 13.3428 6.18732C13.5918 6.49887 13.6467 7.0863 13.4441 7.55719C13.1507 6.95549 12.7201 6.42277 12.1776 5.95901C12.3275 5.88529 12.4837 5.84724 12.6335 5.84486ZM5.33867 7.36693C4.79831 7.36693 4.35927 7.8616 4.35927 8.47043C4.35927 9.07926 4.79831 9.57393 5.33867 9.57393C5.87903 9.57393 6.31807 9.07926 6.31807 8.47043C6.31807 7.8616 5.87903 7.36693 5.33867 7.36693ZM9.66155 7.36693C9.12119 7.36693 8.68215 7.8616 8.68215 8.47043C8.68215 9.07926 9.12119 9.57393 9.66155 9.57393C10.2019 9.57393 10.641 9.07926 10.641 8.47043C10.641 7.8616 10.2019 7.36693 9.66155 7.36693ZM4.81519 11.115C5.15925 11.9165 6.22309 12.6942 7.50011 12.6942C8.77713 12.6942 9.85785 11.9165 10.2019 11.115C9.57712 11.5693 8.59138 11.8761 7.50011 11.8761C6.40883 11.8761 5.43999 11.5693 4.81519 11.115Z"/>
</symbol></svg>
