<svg width="25" height="25" viewBox="0 0 25 25" fill="none" xmlns="http://www.w3.org/2000/svg">
<path d="M12.5 0C5.59692 0 0 5.59692 0 12.5C0 19.4031 5.59692 25 12.5 25C19.4031 25 25 19.4031 25 12.5C25 5.59692 19.4031 0 12.5 0Z" fill="white"/>
<path d="M13.723 15.0518C14.1656 14.9087 14.7324 15.9964 15.3358 16.4127C15.7886 16.728 16.1355 16.6599 16.1355 16.6599L17.7436 16.6368C17.7436 16.6368 18.5841 16.5849 18.1868 15.9172C18.1539 15.8616 17.9539 15.4222 16.9898 14.5179C15.9817 13.5718 16.1183 13.7251 17.332 12.0896C18.0715 11.0927 18.3674 10.4838 18.2747 10.2244C18.1858 9.97486 17.6427 10.0397 17.6427 10.0397L15.8308 10.0522C15.6543 10.0527 15.5048 10.1073 15.4367 10.2907C15.4353 10.2925 15.1492 11.0621 14.7676 11.7164C13.9614 13.1005 13.6396 13.1741 13.5062 13.0875C13.2002 12.887 13.2775 12.2832 13.2775 11.8539C13.2775 10.5125 13.4775 9.9531 12.8858 9.80863C12.688 9.76047 12.5436 9.72898 12.0393 9.72435C11.3947 9.71463 10.8474 9.72435 10.5372 9.8767C10.3311 9.97996 10.1732 10.2064 10.2691 10.2194C10.3894 10.2356 10.6594 10.2934 10.8039 10.4907C10.9896 10.7463 10.984 11.3191 10.984 11.3191C10.984 11.3191 11.09 12.8986 10.734 13.0944C10.4895 13.2287 10.1551 12.9546 9.43602 11.6979C9.06882 11.0552 8.79146 10.3448 8.79146 10.3448C8.79146 10.3448 8.73774 10.2129 8.6405 10.1406C8.52474 10.055 8.36267 10.0277 8.36267 10.0277L6.6429 10.0388C6.6429 10.0388 6.38452 10.0462 6.28959 10.1601C6.20531 10.261 6.28264 10.4694 6.28264 10.4694C6.28264 10.4694 7.62966 13.6557 9.15495 15.2606C10.5534 16.734 12.1426 16.6363 12.1426 16.6363H12.8626C12.8626 16.6363 13.0798 16.6113 13.1909 16.4918C13.2946 16.3807 13.29 16.1719 13.29 16.1719C13.29 16.1719 13.2756 15.1953 13.723 15.0518Z" fill="#030A1A"/>
</svg>
